<?xml version="1.0" standalone="no"?><svg xmlns="http://www.w3.org/2000/svg" viewBox="0 0 1440 320"><path fill="#ffffff" fill-opacity="1" d="M0,96L14.1,96C28.2,96,56,96,85,112C112.9,128,141,160,169,181.3C197.6,203,226,213,254,202.7C282.4,192,311,160,339,144C367.1,128,395,128,424,122.7C451.8,117,480,107,508,117.3C536.5,128,565,160,593,170.7C621.2,181,649,171,678,154.7C705.9,139,734,117,762,122.7C790.6,128,819,160,847,154.7C875.3,149,904,107,932,112C960,117,988,171,1016,186.7C1044.7,203,1073,181,1101,176C1129.4,171,1158,181,1186,186.7C1214.1,192,1242,192,1271,197.3C1298.8,203,1327,213,1355,229.3C1383.5,245,1412,267,1426,277.3L1440,288L1440,320L1425.9,320C1411.8,320,1384,320,1355,320C1327.1,320,1299,320,1271,320C1242.4,320,1214,320,1186,320C1157.6,320,1129,320,1101,320C1072.9,320,1045,320,1016,320C988.2,320,960,320,932,320C903.5,320,875,320,847,320C818.8,320,791,320,762,320C734.1,320,706,320,678,320C649.4,320,621,320,593,320C564.7,320,536,320,508,320C480,320,452,320,424,320C395.3,320,367,320,339,320C310.6,320,282,320,254,320C225.9,320,198,320,169,320C141.2,320,113,320,85,320C56.5,320,28,320,14,320L0,320Z"></path></svg>